<?xml version="1.0" encoding="utf-8"?>
<!-- Generator: Adobe Illustrator 23.0.1, SVG Export Plug-In . SVG Version: 6.00 Build 0)  -->
<svg version="1.1" id="Layer_1" xmlns="http://www.w3.org/2000/svg" xmlns:xlink="http://www.w3.org/1999/xlink" x="0px" y="0px"
	 viewBox="0 0 106.1 28.1" style="enable-background:new 0 0 106.1 28.1;" xml:space="preserve">
<style type="text/css">
	.st0{fill:#006265;}
	.st1{fill:#D52B1E;}
</style>
<g>
	<path class="st0" d="M1.5,12.7L1.5,12.7C1.4,12.7,1.4,12.7,1.5,12.7c-0.1-0.1-0.1-0.1-0.1-0.1V6c0,0,0-0.1,0-0.1l3.9-4
		c0,0,0.1,0,0.1,0c0,0,0.1,0,0.1,0l3.9,4c0,0,0,0.1,0,0.1v6.6c0,0,0,0.1,0,0.1c0,0-0.1,0-0.1,0H1.5z"/>
	<path class="st0" d="M20.5,3.2c-0.3-0.8-0.9-1.4-1.7-1.7c-0.3-0.7-0.8-1.2-1.6-1.4c-1.3-0.4-2.6,0.2-3.2,1.4
		c-0.8,0.2-1.4,0.8-1.7,1.7c-0.3,0.9-0.1,1.8,0.5,2.4c-0.4,1.4,0.3,2.8,1.7,3.3C14.7,9,15,9,15.3,9L15,12.5c0,0,0,0.1,0,0.1
		c0,0,0.1,0,0.1,0h2.6c0,0,0.1,0,0.1,0c0,0,0-0.1,0-0.1L17.6,9c0.3,0,0.5,0,0.8-0.1C19.7,8.5,20.5,7,20,5.7
		C20.6,5,20.8,4.1,20.5,3.2"/>
	<path class="st0" d="M30.5,4.9L29.6,4c-0.1-0.8-0.9-1.4-1.7-1.4c-1,0-1.7,0.8-1.7,1.7c0,0.2,0,0.4,0.1,0.6c0,0,0,0,0,0
		c0,0.1,0,0.1-0.1,0.1c-1.4,0.3-2.5,1.5-2.5,3.1c0,0,0,0,0,0l-2,3.8c0,0,0,0.1,0,0.1c0,0,0.1,0.1,0.1,0l3.6-0.6v1.1c0,0,0,0.1,0,0.1
		c0,0,0.1,0,0.1,0h0.5c0,0,0.1,0,0.1,0c0,0,0-0.1,0-0.1v-1.2c0.1,0,0.3,0,0.5-0.1c0.1,0,0.3,0,0.4-0.1v1.4c0,0,0,0.1,0,0.1
		c0,0,0.1,0,0.1,0h0.5c0,0,0.1,0,0.1,0c0,0,0-0.1,0-0.1V11c1.2-0.4,2.1-1.6,2.1-2.9c0-0.9-0.4-1.8-1-2.3c0.2-0.1,0.3-0.3,0.5-0.4
		L30.5,5C30.5,5,30.5,5,30.5,4.9C30.5,5,30.5,4.9,30.5,4.9"/>
	<path class="st1" d="M11.9,17.5c0,0.1,0,0.1,0,0.2c0,0.1,0,0.2-0.1,0.4l-1.9,6.6c0,0.1-0.1,0.2-0.1,0.2c0,0.1-0.1,0.1-0.2,0.1
		c-0.1,0-0.2,0.1-0.4,0.1c-0.2,0-0.4,0-0.6,0s-0.5,0-0.7,0c-0.2,0-0.3,0-0.4-0.1c-0.1,0-0.2-0.1-0.2-0.1c0-0.1-0.1-0.1-0.1-0.2
		l-1.2-4.4l0-0.1l0,0.1l-1.1,4.4c0,0.1-0.1,0.2-0.1,0.2c0,0.1-0.1,0.1-0.2,0.1c-0.1,0-0.2,0.1-0.4,0.1c-0.2,0-0.4,0-0.7,0
		c-0.3,0-0.5,0-0.7,0c-0.2,0-0.3,0-0.4-0.1c-0.1,0-0.2-0.1-0.2-0.1c0-0.1-0.1-0.1-0.1-0.2l-1.9-6.6C0.1,18,0,17.8,0,17.7
		s0-0.2,0-0.2c0-0.1,0-0.1,0-0.1c0,0,0.1-0.1,0.2-0.1c0.1,0,0.2,0,0.3-0.1c0.1,0,0.3,0,0.5,0c0.2,0,0.4,0,0.5,0c0.1,0,0.2,0,0.3,0.1
		C2,17.3,2,17.3,2,17.4c0,0,0.1,0.1,0.1,0.2l1.4,5.4l0,0.1l0-0.1l1.4-5.4c0-0.1,0-0.1,0.1-0.2c0,0,0.1-0.1,0.2-0.1
		c0.1,0,0.2,0,0.3-0.1c0.1,0,0.3,0,0.5,0c0.2,0,0.4,0,0.5,0c0.1,0,0.2,0,0.3,0.1c0.1,0,0.1,0.1,0.2,0.1c0,0,0.1,0.1,0.1,0.1l1.5,5.4
		l0,0.1l0-0.1l1.4-5.4c0-0.1,0-0.1,0.1-0.2c0,0,0.1-0.1,0.2-0.1c0.1,0,0.2,0,0.3-0.1c0.1,0,0.3,0,0.5,0c0.2,0,0.4,0,0.5,0
		s0.2,0,0.3,0.1c0.1,0,0.1,0.1,0.2,0.1C11.9,17.4,11.9,17.5,11.9,17.5"/>
	<path class="st1" d="M18.5,21.2c0-0.4,0-0.7-0.1-1c-0.1-0.3-0.2-0.6-0.3-0.8c-0.1-0.2-0.3-0.4-0.5-0.5c-0.2-0.1-0.5-0.2-0.9-0.2
		c-0.3,0-0.6,0.1-0.8,0.2c-0.2,0.1-0.4,0.3-0.6,0.5c-0.1,0.2-0.3,0.5-0.3,0.8c-0.1,0.3-0.1,0.6-0.1,1c0,0.4,0,0.7,0.1,1
		c0.1,0.3,0.2,0.6,0.3,0.8c0.1,0.2,0.3,0.4,0.5,0.5c0.2,0.1,0.5,0.2,0.8,0.2c0.3,0,0.6-0.1,0.8-0.2s0.4-0.3,0.6-0.5
		c0.1-0.2,0.3-0.5,0.3-0.8C18.5,21.9,18.5,21.6,18.5,21.2 M20.6,21.1c0,0.6-0.1,1.2-0.2,1.7c-0.2,0.5-0.4,1-0.7,1.3
		c-0.3,0.4-0.7,0.7-1.2,0.9c-0.5,0.2-1.1,0.3-1.8,0.3c-0.6,0-1.2-0.1-1.7-0.3c-0.5-0.2-0.9-0.4-1.2-0.8c-0.3-0.3-0.6-0.8-0.7-1.3
		c-0.2-0.5-0.2-1.1-0.2-1.7c0-0.6,0.1-1.2,0.2-1.7c0.2-0.5,0.4-1,0.7-1.3c0.3-0.4,0.7-0.7,1.2-0.9c0.5-0.2,1.1-0.3,1.8-0.3
		c0.7,0,1.2,0.1,1.7,0.3c0.5,0.2,0.9,0.4,1.2,0.8c0.3,0.3,0.5,0.8,0.7,1.3C20.5,19.9,20.6,20.5,20.6,21.1"/>
	<path class="st1" d="M29.4,24.8c0,0.1,0,0.1,0,0.1c0,0-0.1,0.1-0.2,0.1c-0.1,0-0.2,0-0.3,0.1c-0.1,0-0.3,0-0.5,0
		c-0.2,0-0.4,0-0.5,0c-0.1,0-0.2,0-0.3-0.1c-0.1,0-0.1-0.1-0.2-0.1s0-0.1,0-0.1v-4.2c0-0.4,0-0.6-0.1-0.8c-0.1-0.2-0.1-0.4-0.2-0.5
		c-0.1-0.1-0.2-0.3-0.4-0.3c-0.2-0.1-0.3-0.1-0.5-0.1c-0.3,0-0.5,0.1-0.8,0.3c-0.3,0.2-0.5,0.5-0.8,0.8v4.8c0,0.1,0,0.1,0,0.1
		c0,0-0.1,0.1-0.2,0.1c-0.1,0-0.2,0-0.3,0.1c-0.1,0-0.3,0-0.5,0c-0.2,0-0.4,0-0.5,0c-0.1,0-0.2,0-0.3-0.1c-0.1,0-0.1-0.1-0.2-0.1
		s0-0.1,0-0.1v-7.3c0-0.1,0-0.1,0-0.1c0,0,0.1-0.1,0.1-0.1s0.2,0,0.3-0.1c0.1,0,0.3,0,0.4,0c0.2,0,0.3,0,0.4,0c0.1,0,0.2,0,0.3,0.1
		s0.1,0.1,0.1,0.1c0,0,0,0.1,0,0.1v0.8c0.4-0.4,0.8-0.8,1.2-1c0.4-0.2,0.9-0.3,1.3-0.3c0.5,0,0.9,0.1,1.3,0.2
		c0.3,0.2,0.6,0.4,0.8,0.7c0.2,0.3,0.4,0.6,0.5,1c0.1,0.4,0.1,0.8,0.1,1.4V24.8z"/>
	<path class="st1" d="M36.2,20.4c0-0.6-0.1-1-0.3-1.4c-0.2-0.3-0.6-0.5-1.1-0.5c-0.3,0-0.5,0-0.7,0.1c-0.2,0.1-0.4,0.2-0.5,0.4
		c-0.1,0.2-0.2,0.4-0.3,0.6s-0.1,0.5-0.1,0.7H36.2z M38.2,21c0,0.2-0.1,0.4-0.2,0.6c-0.1,0.1-0.3,0.2-0.5,0.2h-4.4
		c0,0.3,0,0.6,0.1,0.8c0.1,0.3,0.2,0.5,0.4,0.6c0.2,0.2,0.4,0.3,0.6,0.4c0.3,0.1,0.6,0.1,0.9,0.1c0.4,0,0.7,0,0.9-0.1
		c0.3-0.1,0.5-0.1,0.7-0.2c0.2-0.1,0.4-0.1,0.5-0.2c0.1-0.1,0.2-0.1,0.3-0.1c0,0,0.1,0,0.1,0c0,0,0.1,0.1,0.1,0.1s0,0.1,0,0.2
		c0,0.1,0,0.2,0,0.3c0,0.1,0,0.2,0,0.3c0,0.1,0,0.2,0,0.2c0,0.1,0,0.1,0,0.2c0,0-0.1,0.1-0.1,0.1c0,0-0.1,0.1-0.3,0.2
		c-0.2,0.1-0.4,0.1-0.6,0.2c-0.2,0.1-0.5,0.1-0.8,0.2c-0.3,0-0.7,0.1-1,0.1c-0.6,0-1.2-0.1-1.7-0.2c-0.5-0.2-0.9-0.4-1.2-0.7
		c-0.3-0.3-0.6-0.8-0.7-1.3c-0.2-0.5-0.2-1.1-0.2-1.8c0-0.6,0.1-1.2,0.3-1.8c0.2-0.5,0.4-1,0.7-1.3c0.3-0.4,0.7-0.6,1.2-0.8
		s1-0.3,1.6-0.3c0.6,0,1.1,0.1,1.6,0.3c0.4,0.2,0.8,0.4,1.1,0.7c0.3,0.3,0.5,0.7,0.6,1.1c0.1,0.4,0.2,0.9,0.2,1.4V21z"/>
	<path class="st1" d="M47,24.8c0,0.1,0,0.1,0,0.1c0,0-0.1,0.1-0.2,0.1c-0.1,0-0.2,0-0.3,0.1c-0.1,0-0.3,0-0.5,0c-0.2,0-0.4,0-0.5,0
		c-0.1,0-0.2,0-0.3-0.1C45.1,25,45,25,45,25s0-0.1,0-0.1v-4.2c0-0.4,0-0.6-0.1-0.8c-0.1-0.2-0.1-0.4-0.2-0.5
		c-0.1-0.1-0.2-0.3-0.4-0.3c-0.2-0.1-0.3-0.1-0.5-0.1c-0.3,0-0.5,0.1-0.8,0.3c-0.3,0.2-0.5,0.5-0.8,0.8v4.8c0,0.1,0,0.1,0,0.1
		c0,0-0.1,0.1-0.2,0.1c-0.1,0-0.2,0-0.3,0.1c-0.1,0-0.3,0-0.5,0c-0.2,0-0.4,0-0.5,0c-0.1,0-0.2,0-0.3-0.1c-0.1,0-0.1-0.1-0.2-0.1
		s0-0.1,0-0.1v-7.3c0-0.1,0-0.1,0-0.1c0,0,0.1-0.1,0.1-0.1s0.2,0,0.3-0.1c0.1,0,0.3,0,0.4,0c0.2,0,0.3,0,0.4,0c0.1,0,0.2,0,0.3,0.1
		s0.1,0.1,0.1,0.1c0,0,0,0.1,0,0.1v0.8c0.4-0.4,0.8-0.8,1.2-1c0.4-0.2,0.9-0.3,1.3-0.3c0.5,0,0.9,0.1,1.3,0.2
		c0.3,0.2,0.6,0.4,0.8,0.7c0.2,0.3,0.4,0.6,0.5,1c0.1,0.4,0.1,0.8,0.1,1.4V24.8z"/>
	<path class="st1" d="M55.2,24.8c0,0.1,0,0.1,0,0.1c0,0-0.1,0.1-0.2,0.1c-0.1,0-0.2,0-0.3,0.1c-0.1,0-0.3,0-0.5,0
		c-0.2,0-0.4,0-0.5,0c-0.1,0-0.2,0-0.3-0.1c-0.1,0-0.1-0.1-0.2-0.1c0,0,0-0.1,0-0.1V14.1c0-0.1,0-0.1,0-0.1c0,0,0.1-0.1,0.2-0.1
		c0.1,0,0.2-0.1,0.3-0.1c0.1,0,0.3,0,0.5,0c0.2,0,0.4,0,0.5,0c0.1,0,0.2,0,0.3,0.1c0.1,0,0.1,0.1,0.2,0.1c0,0,0,0.1,0,0.1V24.8z"/>
	<path class="st1" d="M59.5,24.8c0,0.1,0,0.1,0,0.1s-0.1,0.1-0.2,0.1c-0.1,0-0.2,0-0.3,0.1c-0.1,0-0.3,0-0.5,0c-0.2,0-0.4,0-0.5,0
		c-0.1,0-0.2,0-0.3-0.1c-0.1,0-0.1-0.1-0.2-0.1c0,0,0-0.1,0-0.1v-7.3c0-0.1,0-0.1,0-0.1c0,0,0.1-0.1,0.2-0.1c0.1,0,0.2-0.1,0.3-0.1
		c0.1,0,0.3,0,0.5,0c0.2,0,0.4,0,0.5,0c0.1,0,0.2,0,0.3,0.1c0.1,0,0.1,0.1,0.2,0.1s0,0.1,0,0.1V24.8z M59.6,15.1
		c0,0.4-0.1,0.7-0.3,0.9c-0.2,0.2-0.5,0.2-0.9,0.2c-0.5,0-0.8-0.1-0.9-0.2c-0.2-0.2-0.2-0.4-0.2-0.8c0-0.4,0.1-0.7,0.2-0.9
		c0.2-0.2,0.5-0.2,0.9-0.2c0.5,0,0.8,0.1,0.9,0.2C59.6,14.4,59.6,14.7,59.6,15.1"/>
	<path class="st1" d="M73.3,24.8c0,0.1,0,0.1,0,0.1s-0.1,0.1-0.2,0.1c-0.1,0-0.2,0-0.3,0.1c-0.1,0-0.3,0-0.5,0c-0.2,0-0.4,0-0.5,0
		c-0.1,0-0.2,0-0.3-0.1c-0.1,0-0.1-0.1-0.2-0.1s0-0.1,0-0.1v-4.3c0-0.2,0-0.5-0.1-0.7c0-0.2-0.1-0.4-0.2-0.5
		c-0.1-0.1-0.2-0.3-0.4-0.3c-0.1-0.1-0.3-0.1-0.5-0.1c-0.2,0-0.5,0.1-0.7,0.3s-0.5,0.5-0.8,0.8v4.8c0,0.1,0,0.1,0,0.1
		c0,0-0.1,0.1-0.2,0.1c-0.1,0-0.2,0-0.3,0.1c-0.1,0-0.3,0-0.5,0c-0.2,0-0.4,0-0.5,0c-0.1,0-0.2,0-0.3-0.1c-0.1,0-0.1-0.1-0.2-0.1
		c0,0,0-0.1,0-0.1v-4.3c0-0.2,0-0.5-0.1-0.7c0-0.2-0.1-0.4-0.2-0.5c-0.1-0.1-0.2-0.3-0.4-0.3c-0.1-0.1-0.3-0.1-0.5-0.1
		c-0.3,0-0.5,0.1-0.8,0.3c-0.3,0.2-0.5,0.5-0.8,0.8v4.8c0,0.1,0,0.1,0,0.1c0,0-0.1,0.1-0.2,0.1c-0.1,0-0.2,0-0.3,0.1
		c-0.1,0-0.3,0-0.5,0c-0.2,0-0.4,0-0.5,0c-0.1,0-0.2,0-0.3-0.1c-0.1,0-0.1-0.1-0.2-0.1s0-0.1,0-0.1v-7.3c0-0.1,0-0.1,0-0.1
		c0,0,0.1-0.1,0.1-0.1s0.2,0,0.3-0.1c0.1,0,0.3,0,0.4,0c0.2,0,0.3,0,0.4,0c0.1,0,0.2,0,0.3,0.1s0.1,0.1,0.1,0.1c0,0,0,0.1,0,0.1v0.8
		c0.4-0.4,0.8-0.8,1.2-1c0.4-0.2,0.8-0.3,1.3-0.3c0.3,0,0.6,0,0.8,0.1c0.2,0.1,0.5,0.2,0.6,0.3c0.2,0.1,0.3,0.3,0.5,0.4
		c0.1,0.2,0.3,0.3,0.3,0.5c0.2-0.2,0.4-0.4,0.6-0.6c0.2-0.2,0.4-0.3,0.6-0.4c0.2-0.1,0.4-0.2,0.6-0.2c0.2-0.1,0.4-0.1,0.6-0.1
		c0.5,0,0.9,0.1,1.2,0.2c0.3,0.2,0.6,0.4,0.8,0.7c0.2,0.3,0.3,0.6,0.4,1c0.1,0.4,0.1,0.8,0.1,1.2V24.8z"/>
	<path class="st1" d="M80.6,21.2c0-0.3,0-0.6-0.1-0.9c0-0.3-0.1-0.5-0.2-0.8c-0.1-0.2-0.3-0.4-0.4-0.5c-0.2-0.1-0.4-0.2-0.7-0.2
		c-0.1,0-0.3,0-0.4,0.1c-0.1,0-0.3,0.1-0.4,0.2c-0.1,0.1-0.3,0.2-0.4,0.4c-0.1,0.1-0.3,0.3-0.5,0.5v2.4c0.3,0.4,0.6,0.7,0.8,0.8
		c0.3,0.2,0.5,0.3,0.8,0.3c0.3,0,0.5-0.1,0.7-0.2c0.2-0.1,0.3-0.3,0.5-0.5s0.2-0.5,0.3-0.7C80.6,21.8,80.6,21.5,80.6,21.2
		 M82.7,21.1c0,0.6-0.1,1.2-0.2,1.7c-0.1,0.5-0.3,1-0.6,1.3c-0.3,0.4-0.6,0.6-1,0.8c-0.4,0.2-0.8,0.3-1.3,0.3c-0.2,0-0.5,0-0.7-0.1
		s-0.4-0.1-0.6-0.2c-0.2-0.1-0.4-0.2-0.6-0.4c-0.2-0.2-0.4-0.3-0.6-0.6v0.8c0,0.1,0,0.1,0,0.2c0,0-0.1,0.1-0.1,0.1s-0.2,0-0.3,0.1
		c-0.1,0-0.3,0-0.4,0c-0.2,0-0.3,0-0.4,0c-0.1,0-0.2,0-0.3-0.1c-0.1,0-0.1-0.1-0.1-0.1c0,0,0-0.1,0-0.2V14.1c0-0.1,0-0.1,0-0.1
		c0,0,0.1-0.1,0.2-0.1s0.2-0.1,0.3-0.1c0.1,0,0.3,0,0.5,0c0.2,0,0.4,0,0.5,0c0.1,0,0.2,0,0.3,0.1s0.1,0.1,0.2,0.1c0,0,0,0.1,0,0.1v4
		c0.2-0.2,0.4-0.3,0.6-0.5c0.2-0.1,0.4-0.2,0.6-0.3c0.2-0.1,0.4-0.1,0.6-0.2c0.2,0,0.4-0.1,0.6-0.1c0.5,0,1,0.1,1.4,0.3
		c0.4,0.2,0.7,0.5,0.9,0.9s0.4,0.8,0.5,1.3C82.7,20,82.7,20.5,82.7,21.1"/>
	<path class="st1" d="M91.3,24.8c0,0.1,0,0.1,0,0.1c0,0-0.1,0.1-0.1,0.1c-0.1,0-0.2,0-0.3,0.1c-0.1,0-0.3,0-0.4,0
		c-0.2,0-0.3,0-0.4,0c-0.1,0-0.2,0-0.3-0.1c-0.1,0-0.1-0.1-0.1-0.1s0-0.1,0-0.1V24c-0.4,0.4-0.8,0.8-1.2,1c-0.4,0.2-0.8,0.3-1.3,0.3
		c-0.5,0-0.9-0.1-1.3-0.2c-0.3-0.2-0.6-0.4-0.8-0.7c-0.2-0.3-0.4-0.6-0.4-1c-0.1-0.4-0.1-0.8-0.1-1.4v-4.5c0-0.1,0-0.1,0-0.1
		c0,0,0.1-0.1,0.2-0.1c0.1,0,0.2,0,0.3-0.1c0.1,0,0.3,0,0.5,0c0.2,0,0.4,0,0.5,0c0.1,0,0.2,0,0.3,0.1c0.1,0,0.1,0.1,0.2,0.1
		c0,0,0,0.1,0,0.1v4.1c0,0.4,0,0.7,0.1,0.9c0,0.2,0.1,0.4,0.2,0.5c0.1,0.1,0.2,0.3,0.4,0.3c0.2,0.1,0.3,0.1,0.5,0.1
		c0.3,0,0.5-0.1,0.8-0.3c0.3-0.2,0.5-0.5,0.8-0.8v-4.8c0-0.1,0-0.1,0-0.1c0,0,0.1-0.1,0.2-0.1c0.1,0,0.2,0,0.3-0.1
		c0.1,0,0.3,0,0.5,0c0.2,0,0.4,0,0.5,0c0.1,0,0.2,0,0.3,0.1c0.1,0,0.1,0.1,0.2,0.1c0,0,0,0.1,0,0.1V24.8z"/>
	<path class="st1" d="M98.3,18.2c0,0.2,0,0.4,0,0.5c0,0.1,0,0.2,0,0.3c0,0.1-0.1,0.1-0.1,0.1c0,0-0.1,0-0.1,0c0,0-0.1,0-0.1,0
		c-0.1,0-0.1,0-0.2-0.1c-0.1,0-0.1,0-0.2-0.1c-0.1,0-0.2,0-0.3,0c-0.1,0-0.2,0-0.3,0.1c-0.1,0-0.2,0.1-0.4,0.2
		c-0.1,0.1-0.3,0.2-0.4,0.4c-0.1,0.2-0.3,0.4-0.4,0.6v4.5c0,0.1,0,0.1,0,0.1c0,0-0.1,0.1-0.2,0.1s-0.2,0-0.3,0.1c-0.1,0-0.3,0-0.5,0
		c-0.2,0-0.4,0-0.5,0c-0.1,0-0.2,0-0.3-0.1S93.7,25,93.6,25c0,0,0-0.1,0-0.1v-7.3c0-0.1,0-0.1,0-0.1c0,0,0.1-0.1,0.1-0.1
		c0.1,0,0.2,0,0.3-0.1c0.1,0,0.3,0,0.4,0c0.2,0,0.3,0,0.4,0c0.1,0,0.2,0,0.3,0.1c0.1,0,0.1,0.1,0.1,0.1c0,0,0,0.1,0,0.1v0.9
		c0.2-0.3,0.4-0.5,0.5-0.7c0.2-0.2,0.3-0.3,0.5-0.4c0.2-0.1,0.3-0.2,0.5-0.2c0.2,0,0.3-0.1,0.5-0.1c0.1,0,0.1,0,0.2,0
		c0.1,0,0.2,0,0.3,0c0.1,0,0.2,0,0.2,0.1c0.1,0,0.1,0.1,0.1,0.1c0,0,0.1,0.1,0.1,0.1c0,0,0,0.1,0,0.1c0,0.1,0,0.1,0,0.3
		S98.3,18,98.3,18.2"/>
	<path class="st1" d="M103.4,19.8c0-0.4-0.1-0.7-0.3-0.9c-0.2-0.2-0.5-0.3-0.9-0.3c-0.2,0-0.4,0-0.5,0.1c-0.2,0.1-0.3,0.2-0.4,0.3
		c-0.1,0.1-0.2,0.3-0.2,0.4c0,0.2-0.1,0.3-0.1,0.5c0,0.4,0.1,0.7,0.3,0.9c0.2,0.2,0.5,0.3,0.9,0.3c0.2,0,0.4,0,0.5-0.1
		c0.2-0.1,0.3-0.2,0.4-0.3c0.1-0.1,0.2-0.2,0.2-0.4C103.4,20.1,103.4,19.9,103.4,19.8 M103.9,25.6c0-0.2-0.1-0.4-0.3-0.6
		c-0.2-0.1-0.5-0.2-0.8-0.2l-1.5,0c-0.1,0.1-0.3,0.2-0.3,0.3c-0.1,0.1-0.2,0.2-0.2,0.3c-0.1,0.1-0.1,0.2-0.1,0.3c0,0.1,0,0.2,0,0.3
		c0,0.3,0.1,0.5,0.4,0.6c0.3,0.1,0.7,0.2,1.2,0.2c0.3,0,0.6,0,0.8-0.1c0.2-0.1,0.4-0.1,0.5-0.2c0.1-0.1,0.2-0.2,0.3-0.3
		C103.9,25.9,103.9,25.7,103.9,25.6 M106.1,18c0,0.3,0,0.5-0.1,0.6c-0.1,0.1-0.1,0.2-0.2,0.2h-0.9c0.1,0.1,0.2,0.3,0.3,0.4
		c0.1,0.2,0.1,0.3,0.1,0.5c0,0.4-0.1,0.8-0.2,1.1s-0.3,0.6-0.6,0.8c-0.3,0.2-0.6,0.4-1,0.5c-0.4,0.1-0.8,0.2-1.2,0.2
		c-0.2,0-0.5,0-0.7-0.1c-0.2-0.1-0.4-0.1-0.5-0.2c-0.1,0.1-0.1,0.2-0.2,0.3c-0.1,0.1-0.1,0.2-0.1,0.3c0,0.2,0.1,0.3,0.2,0.4
		c0.1,0.1,0.3,0.2,0.6,0.2l1.8,0.1c0.4,0,0.8,0.1,1.1,0.2c0.3,0.1,0.6,0.2,0.8,0.4c0.2,0.2,0.4,0.4,0.5,0.7c0.1,0.3,0.2,0.5,0.2,0.9
		c0,0.4-0.1,0.7-0.2,1c-0.2,0.3-0.4,0.6-0.7,0.8c-0.3,0.2-0.7,0.4-1.2,0.6c-0.5,0.1-1,0.2-1.7,0.2c-0.6,0-1.2,0-1.6-0.1
		c-0.4-0.1-0.8-0.2-1.1-0.4c-0.3-0.2-0.5-0.4-0.6-0.6c-0.1-0.2-0.2-0.5-0.2-0.8c0-0.2,0-0.4,0.1-0.5c0-0.2,0.1-0.3,0.2-0.5
		c0.1-0.1,0.2-0.3,0.3-0.4c0.1-0.1,0.3-0.3,0.4-0.4c-0.2-0.1-0.4-0.3-0.5-0.5c-0.1-0.2-0.2-0.5-0.2-0.7c0-0.3,0.1-0.6,0.2-0.9
		c0.1-0.3,0.3-0.5,0.6-0.7c-0.2-0.2-0.3-0.4-0.5-0.7c-0.1-0.3-0.2-0.6-0.2-1c0-0.4,0.1-0.8,0.2-1.1c0.2-0.3,0.4-0.6,0.6-0.8
		c0.3-0.2,0.6-0.4,1-0.5c0.4-0.1,0.8-0.2,1.2-0.2c0.2,0,0.4,0,0.7,0c0.2,0,0.4,0.1,0.6,0.1h2.3c0.1,0,0.2,0.1,0.2,0.2
		C106,17.6,106.1,17.8,106.1,18"/>
</g>
</svg>
