<?xml version="1.0" encoding="utf-8"?>
<!-- Generator: Adobe Illustrator 23.0.1, SVG Export Plug-In . SVG Version: 6.00 Build 0)  -->
<svg version="1.1" id="Layer_1" xmlns="http://www.w3.org/2000/svg" xmlns:xlink="http://www.w3.org/1999/xlink" x="20px" y="20px"
	 width="100px" height="100px" viewBox="-20 -20 100 100" xml:space="preserve">
<style type="text/css">
	.st0{fill-rule:evenodd;clip-rule:evenodd;fill:#FFFFFF;}
	.st1{fill:#4F0B7B;}
</style>
<filter x="-96.7%" y="-96.7%" width="293.3%" height="293.3%" filterUnits="objectBoundingBox" id="filter-1">
            <feOffset dx="-5" dy="10" in="SourceAlpha" result="shadowOffsetOuter1"></feOffset>
            <feGaussianBlur stdDeviation="10" in="shadowOffsetOuter1" result="shadowBlurOuter1"></feGaussianBlur>
            <feColorMatrix values="0 0 0 0 0   0 0 0 0 0   0 0 0 0 0  0 0 0 0.1 0" type="matrix" in="shadowBlurOuter1" result="shadowMatrixOuter1"></feColorMatrix>
            <feMerge>
                <feMergeNode in="shadowMatrixOuter1"></feMergeNode>
                <feMergeNode in="SourceGraphic"></feMergeNode>
            </feMerge>
        </filter>
<path filter="url(#filter-1)" class="st0" d="M0.1,29.8c-0.5-6.2,1.2-12.1,5.2-17.2c1.5-1.8,3.2-3.6,5.1-4.9c3.4-2.2,7-4,10.5-6c2.3-1.3,4.8-1.8,7.4-1.7
	c3.7,0.1,7.3,0,10.9,0.8c2.8,0.6,5.2,1.6,7.4,3.4c5.6,4.6,10.7,9.6,12.2,17c1.6,7.5,1.8,14.9-1.9,21.9c-1.7,3.3-3.1,6.7-5.8,9.2
	c-4.2,3.8-8.8,6.6-14.6,7c-2.4,0.2-4.8,0.3-7.1,0.6c-1.7,0.2-3.2-0.1-4.8-0.7c-4.6-1.8-9.4-2.8-13.7-5.6C4.2,49.4,1.2,43.1,0.1,35.5
	C-0.1,33.7,0.1,31.9,0.1,29.8"/>
<path class="st1" d="M36.6,37.4c-6.1,2.7-12.2,5.4-18.3,8.1c0,0.1,0,0.2,0,0.3c0,0.7-2.4,0.2-2.4-0.7v-0.7c0.2-10-0.8-20,0.1-30
	c0.1-0.6,0.4-0.7,1.2-0.4c4.3,1.4,8.3,4.3,12.1,6.7c2.9,1.8,5.8,3.6,8.8,5.5c1.7,1,6.6,3.2,6.3,5C44,33.6,38.6,36.5,36.6,37.4z"/>
</svg>
