
<svg width="272px" height="138px" viewBox="0 0 272 138" version="1.1" xmlns="http://www.w3.org/2000/svg" xmlns:xlink="http://www.w3.org/1999/xlink">
    <defs>
        <filter x="-24.9%" y="-58.0%" width="149.8%" height="216.0%" filterUnits="objectBoundingBox" id="filter-1">
            <feOffset dx="-5" dy="10" in="SourceAlpha" result="shadowOffsetOuter1"></feOffset>
            <feGaussianBlur stdDeviation="10" in="shadowOffsetOuter1" result="shadowBlurOuter1"></feGaussianBlur>
            <feColorMatrix values="0 0 0 0 0   0 0 0 0 0   0 0 0 0 0  0 0 0 0.1 0" type="matrix" in="shadowBlurOuter1" result="shadowMatrixOuter1"></feColorMatrix>
            <feMerge>
                <feMergeNode in="shadowMatrixOuter1"></feMergeNode>
                <feMergeNode in="SourceGraphic"></feMergeNode>
            </feMerge>
        </filter>
        <polygon id="path-2" points="0.4789 0.3635 12.9999 0.3635 12.9999 19 0.4789 19"></polygon>
    </defs>
    <g id="Welcome" stroke="none" stroke-width="1" fill="none" fill-rule="evenodd">
        <g id="Scherm-01" transform="translate(-95.000000, -31.000000)">
            <g id="Group-2" filter="url(#filter-1)" transform="translate(120.000000, 40.000000)">
                <g id="Group-4" transform="translate(116.146549, 49.905999) rotate(3.000000) translate(-116.146549, -49.905999) translate(2.146549, 5.905999)">
                    <rect id="Rectangle-5" fill="#FFFFFF" x="0" y="0" width="228" height="88"></rect>
                    <g id="Page-1" transform="translate(24.000000, 20.000000)">
                        <path d="M2.4887,21.5219 C2.4357,21.5219 2.3847,21.5019 2.3507,21.4659 C2.3127,21.4279 2.2927,21.3769 2.2927,21.3259 L2.2927,10.1339 C2.2927,10.0809 2.3127,10.0319 2.3487,9.9959 L8.9987,3.2829 C9.0367,3.2449 9.0857,3.2229 9.1377,3.2229 C9.1907,3.2229 9.2397,3.2449 9.2777,3.2829 L15.9267,9.9959 C15.9637,10.0319 15.9857,10.0809 15.9857,10.1339 L15.9857,21.3259 C15.9857,21.3779 15.9637,21.4279 15.9267,21.4659 C15.8907,21.5019 15.8397,21.5219 15.7887,21.5219 L2.4887,21.5219 Z" id="Fill-1" fill="#006265"></path>
                        <path d="M34.7704,5.4755 C34.3144,4.0735 33.2194,3.0575 31.9124,2.6455 C31.4284,1.5315 30.4884,0.6205 29.2424,0.2155 C27.0704,-0.4895 24.7464,0.5895 23.8594,2.6455 C22.5524,3.0585 21.4574,4.0735 21.0014,5.4755 C20.5224,6.9505 20.8674,8.4945 21.7794,9.6125 C21.0344,11.9165 22.2964,14.3895 24.5994,15.1365 C25.0254,15.2745 25.4574,15.3455 25.8834,15.3525 L25.4554,21.2945 C25.4504,21.3525 25.4664,21.4105 25.5064,21.4545 C25.5444,21.4975 25.6014,21.5205 25.6594,21.5205 L30.1124,21.5205 C30.1704,21.5205 30.2274,21.4975 30.2654,21.4545 C30.3034,21.4105 30.3234,21.3525 30.3164,21.2945 L29.8384,15.3505 C30.2794,15.3495 30.7294,15.2805 31.1724,15.1365 C33.4764,14.3895 34.7374,11.9165 33.9924,9.6125 C34.9044,8.4945 35.2494,6.9505 34.7704,5.4755" id="Fill-3" fill="#006265"></path>
                        <path d="M51.7709,8.33 L50.2649,6.757 C50.0129,5.38 48.8089,4.337 47.3609,4.337 C45.7289,4.337 44.4069,5.661 44.4069,7.292 C44.4069,7.635 44.4669,7.963 44.5739,8.27 C44.5739,8.27 44.5849,8.297 44.5849,8.335 C44.5849,8.424 44.5229,8.499 44.4389,8.518 C42.0319,9.012 40.2219,11.142 40.2219,13.695 C40.2219,13.715 40.2229,13.733 40.2229,13.751 L36.8329,20.136 C36.7979,20.205 36.8029,20.286 36.8469,20.348 C36.8919,20.41 36.9679,20.44 37.0429,20.428 L43.2329,19.421 L43.2329,21.322 C43.2329,21.374 43.2549,21.426 43.2909,21.464 C43.3289,21.5 43.3799,21.522 43.4329,21.522 L44.3219,21.522 C44.3749,21.522 44.4269,21.5 44.4629,21.464 C44.5009,21.426 44.5229,21.374 44.5229,21.322 L44.5229,19.218 C44.7269,19.192 45.0369,19.142 45.3579,19.089 C45.5989,19.051 45.8329,19.013 45.9999,18.983 L45.9999,21.322 C45.9999,21.374 46.0199,21.426 46.0579,21.464 C46.0959,21.502 46.1469,21.522 46.1999,21.522 L47.0579,21.522 C47.1119,21.522 47.1629,21.502 47.1989,21.464 C47.2369,21.426 47.2569,21.374 47.2569,21.322 L47.2569,18.684 C49.3159,17.962 50.7929,16.001 50.7929,13.695 C50.7929,12.122 50.1049,10.708 49.0139,9.74 C49.3129,9.538 49.5719,9.283 49.7809,8.987 L51.7149,8.54 C51.7579,8.528 51.7909,8.495 51.8039,8.452 C51.8149,8.408 51.8019,8.361 51.7709,8.33" id="Fill-5" fill="#006265"></path>
                        <path d="M20.1894,29.7265 C20.1894,29.8285 20.1744,29.9535 20.1474,30.1015 C20.1204,30.2485 20.0694,30.4615 19.9954,30.7395 L16.6954,41.9295 C16.6494,42.0855 16.5874,42.2125 16.5154,42.3105 C16.4404,42.4085 16.3264,42.4845 16.1744,42.5395 C16.0224,42.5955 15.8064,42.6315 15.5224,42.6495 C15.2414,42.6675 14.8734,42.6765 14.4214,42.6765 C13.9684,42.6765 13.5984,42.6655 13.3114,42.6425 C13.0244,42.6205 12.8014,42.5805 12.6404,42.5265 C12.4774,42.4705 12.3584,42.3935 12.2864,42.2955 C12.2114,42.1995 12.1554,42.0765 12.1194,41.9295 L10.0404,34.4135 L10.0114,34.2875 L9.9834,34.4135 L8.0694,41.9295 C8.0334,42.0855 7.9814,42.2125 7.9104,42.3105 C7.8414,42.4085 7.7234,42.4845 7.5564,42.5395 C7.3914,42.5955 7.1644,42.6315 6.8774,42.6495 C6.5914,42.6675 6.2214,42.6765 5.7674,42.6765 C5.3064,42.6765 4.9334,42.6655 4.6514,42.6425 C4.3704,42.6205 4.1494,42.5805 3.9854,42.5265 C3.8244,42.4705 3.7064,42.3935 3.6324,42.2955 C3.5594,42.1995 3.5034,42.0765 3.4674,41.9295 L0.1944,30.7395 C0.1104,30.4705 0.0584,30.2595 0.0344,30.1075 C0.0104,29.9555 0.0004,29.8285 0.0004,29.7265 C0.0004,29.6345 0.0254,29.5545 0.0764,29.4835 C0.1274,29.4145 0.2194,29.3605 0.3544,29.3185 C0.4884,29.2765 0.6684,29.2465 0.8944,29.2275 C1.1214,29.2095 1.4064,29.2005 1.7474,29.2005 C2.1174,29.2005 2.4164,29.2095 2.6484,29.2275 C2.8794,29.2465 3.0604,29.2785 3.1894,29.3255 C3.3184,29.3715 3.4094,29.4345 3.4604,29.5125 C3.5104,29.5905 3.5504,29.6845 3.5774,29.7955 L6.0324,38.8775 L6.0594,39.0445 L6.0864,38.8775 L8.3894,29.7955 C8.4164,29.6845 8.4604,29.5905 8.5224,29.5125 C8.5814,29.4345 8.6704,29.3715 8.7924,29.3255 C8.9114,29.2785 9.0804,29.2465 9.2984,29.2275 C9.5144,29.2095 9.7934,29.2005 10.1364,29.2005 C10.4774,29.2005 10.7554,29.2115 10.9694,29.2345 C11.1814,29.2585 11.3504,29.2895 11.4754,29.3305 C11.5984,29.3725 11.6874,29.4295 11.7384,29.4975 C11.7894,29.5665 11.8274,29.6485 11.8564,29.7415 L14.3234,38.8925 L14.3654,39.0445 L14.3924,38.8775 L16.7514,29.7955 C16.7694,29.6845 16.8054,29.5905 16.8614,29.5125 C16.9164,29.4345 17.0084,29.3715 17.1394,29.3255 C17.2684,29.2785 17.4444,29.2465 17.6654,29.2275 C17.8874,29.2095 18.1694,29.2005 18.5114,29.2005 C18.8544,29.2005 19.1334,29.2095 19.3514,29.2275 C19.5664,29.2465 19.7394,29.2765 19.8644,29.3185 C19.9884,29.3605 20.0734,29.4145 20.1204,29.4835 C20.1664,29.5545 20.1894,29.6345 20.1894,29.7265" id="Fill-7" fill="#D52B1E"></path>
                        <path d="M34.977,35.8144 C34.977,36.8684 34.839,37.8304 34.562,38.6994 C34.284,39.5674 33.863,40.3154 33.299,40.9444 C32.735,41.5724 32.029,42.0594 31.178,42.3994 C30.327,42.7434 29.333,42.9134 28.197,42.9134 C27.096,42.9134 26.14,42.7614 25.327,42.4564 C24.513,42.1514 23.837,41.7074 23.302,41.1244 C22.765,40.5424 22.368,39.8254 22.108,38.9744 C21.851,38.1254 21.722,37.1544 21.722,36.0634 C21.722,35.0104 21.862,34.0454 22.145,33.1724 C22.426,32.3004 22.849,31.5504 23.413,30.9264 C23.977,30.3024 24.681,29.8194 25.527,29.4774 C26.374,29.1354 27.365,28.9634 28.502,28.9634 C29.611,28.9634 30.572,29.1144 31.387,29.4154 C32.2,29.7144 32.873,30.1574 33.404,30.7394 C33.936,31.3224 34.33,32.0384 34.589,32.8874 C34.847,33.7384 34.977,34.7144 34.977,35.8144 M31.387,35.9524 C31.387,35.3424 31.338,34.7814 31.24,34.2684 C31.144,33.7544 30.978,33.3084 30.748,32.9294 C30.516,32.5504 30.209,32.2564 29.827,32.0424 C29.442,31.8304 28.959,31.7234 28.377,31.7234 C27.86,31.7234 27.406,31.8194 27.018,32.0074 C26.63,32.1964 26.31,32.4744 26.062,32.8404 C25.811,33.2054 25.624,33.6444 25.499,34.1574 C25.376,34.6694 25.312,35.2554 25.312,35.9124 C25.312,36.5224 25.363,37.0824 25.465,37.5964 C25.566,38.1094 25.73,38.5554 25.956,38.9354 C26.184,39.3124 26.492,39.6064 26.88,39.8144 C27.269,40.0234 27.748,40.1264 28.321,40.1264 C28.849,40.1264 29.306,40.0324 29.694,39.8414 C30.082,39.6534 30.402,39.3774 30.652,39.0164 C30.9,38.6574 31.085,38.2204 31.206,37.7064 C31.327,37.1944 31.387,36.6084 31.387,35.9524" id="Fill-9" fill="#D52B1E"></path>
                        <path d="M49.8349,42.123 C49.8349,42.216 49.8059,42.297 49.7519,42.366 C49.6949,42.435 49.6029,42.494 49.4739,42.539 C49.3449,42.586 49.1679,42.621 48.9409,42.644 C48.7139,42.665 48.4349,42.679 48.1009,42.679 C47.7599,42.679 47.4749,42.665 47.2499,42.644 C47.0209,42.621 46.8449,42.586 46.7139,42.539 C46.5859,42.494 46.4929,42.435 46.4369,42.366 C46.3829,42.297 46.3539,42.216 46.3539,42.123 L46.3539,35.066 C46.3539,34.465 46.3099,33.994 46.2229,33.65 C46.1359,33.31 46.0069,33.016 45.8419,32.77 C45.6749,32.526 45.4589,32.335 45.1959,32.201 C44.9329,32.068 44.6269,32.001 44.2739,32.001 C43.8319,32.001 43.3819,32.163 42.9299,32.486 C42.4769,32.81 42.0049,33.282 41.5149,33.901 L41.5149,42.123 C41.5149,42.216 41.4879,42.297 41.4319,42.366 C41.3769,42.435 41.2809,42.494 41.1479,42.539 C41.0139,42.586 40.8359,42.621 40.6129,42.644 C40.3919,42.665 40.1109,42.679 39.7679,42.679 C39.4269,42.679 39.1439,42.665 38.9219,42.644 C38.7009,42.621 38.5229,42.586 38.3889,42.539 C38.2539,42.494 38.1599,42.435 38.1039,42.366 C38.0499,42.297 38.0209,42.216 38.0209,42.123 L38.0209,29.755 C38.0209,29.663 38.0439,29.581 38.0889,29.512 C38.1369,29.443 38.2199,29.385 38.3399,29.338 C38.4599,29.292 38.6159,29.258 38.8039,29.235 C38.9929,29.211 39.2319,29.2 39.5189,29.2 C39.8149,29.2 40.0599,29.211 40.2539,29.235 C40.4479,29.258 40.5969,29.292 40.7039,29.338 C40.8109,29.385 40.8869,29.443 40.9329,29.512 C40.9799,29.581 41.0029,29.663 41.0029,29.755 L41.0029,31.183 C41.6859,30.443 42.3819,29.89 43.0879,29.519 C43.7949,29.149 44.5339,28.964 45.3009,28.964 C46.1409,28.964 46.8509,29.102 47.4289,29.38 C48.0059,29.657 48.4749,30.035 48.8299,30.51 C49.1859,30.987 49.4409,31.544 49.5989,32.181 C49.7549,32.82 49.8349,33.587 49.8349,34.483 L49.8349,42.123 Z" id="Fill-11" fill="#D52B1E"></path>
                        <path d="M64.8056,35.5785 C64.8056,36.0035 64.7096,36.3185 64.5206,36.5225 C64.3316,36.7255 64.0706,36.8275 63.7366,36.8275 L56.2076,36.8275 C56.2076,37.3525 56.2706,37.8315 56.3946,38.2625 C56.5196,38.6915 56.7196,39.0565 56.9916,39.3575 C57.2636,39.6575 57.6156,39.8855 58.0456,40.0435 C58.4756,40.1995 58.9906,40.2795 59.5916,40.2795 C60.2026,40.2795 60.7376,40.2365 61.2006,40.1465 C61.6606,40.0595 62.0626,39.9615 62.3996,39.8545 C62.7376,39.7495 63.0166,39.6535 63.2376,39.5645 C63.4596,39.4775 63.6406,39.4335 63.7786,39.4335 C63.8626,39.4335 63.9306,39.4505 63.9876,39.4815 C64.0416,39.5145 64.0886,39.5725 64.1246,39.6555 C64.1626,39.7385 64.1886,39.8545 64.2016,40.0095 C64.2156,40.1615 64.2226,40.3535 64.2226,40.5845 C64.2226,40.7875 64.2176,40.9595 64.2086,41.1045 C64.1996,41.2485 64.1866,41.3705 64.1666,41.4715 C64.1486,41.5735 64.1216,41.6585 64.0856,41.7275 C64.0476,41.7985 63.9976,41.8655 63.9386,41.9285 C63.8786,41.9945 63.7156,42.0805 63.4466,42.1915 C63.1786,42.3045 62.8346,42.4125 62.4196,42.5185 C62.0046,42.6255 61.5276,42.7185 60.9916,42.7955 C60.4546,42.8735 59.8836,42.9135 59.2716,42.9135 C58.1726,42.9135 57.2086,42.7745 56.3816,42.4965 C55.5546,42.2205 54.8636,41.7995 54.3076,41.2355 C53.7526,40.6715 53.3396,39.9605 53.0666,39.1005 C52.7946,38.2405 52.6586,37.2335 52.6586,36.0775 C52.6586,34.9785 52.8026,33.9855 53.0886,33.1025 C53.3756,32.2205 53.7906,31.4715 54.3366,30.8575 C54.8816,30.2435 55.5456,29.7735 56.3256,29.4505 C57.1076,29.1255 57.9876,28.9635 58.9676,28.9635 C60.0026,28.9635 60.8886,29.1165 61.6226,29.4215 C62.3576,29.7255 62.9606,30.1505 63.4316,30.6915 C63.9036,31.2315 64.2506,31.8705 64.4716,32.6105 C64.6946,33.3505 64.8056,34.1545 64.8056,35.0235 L64.8056,35.5785 Z M61.4216,34.5805 C61.4496,33.5995 61.2526,32.8315 60.8316,32.2715 C60.4106,31.7125 59.7616,31.4325 58.8836,31.4325 C58.4406,31.4325 58.0546,31.5145 57.7256,31.6815 C57.3976,31.8485 57.1256,32.0735 56.9076,32.3545 C56.6906,32.6365 56.5246,32.9695 56.4096,33.3525 C56.2926,33.7375 56.2256,34.1455 56.2076,34.5805 L61.4216,34.5805 Z" id="Fill-13" fill="#D52B1E"></path>
                        <path d="M79.7734,42.123 C79.7734,42.216 79.7464,42.297 79.6904,42.366 C79.6354,42.435 79.5414,42.494 79.4124,42.539 C79.2834,42.586 79.1064,42.621 78.8784,42.644 C78.6524,42.665 78.3734,42.679 78.0394,42.679 C77.6974,42.679 77.4134,42.665 77.1884,42.644 C76.9594,42.621 76.7834,42.586 76.6524,42.539 C76.5234,42.494 76.4314,42.435 76.3754,42.366 C76.3204,42.297 76.2924,42.216 76.2924,42.123 L76.2924,35.066 C76.2924,34.465 76.2484,33.994 76.1614,33.65 C76.0744,33.31 75.9474,33.016 75.7804,32.77 C75.6134,32.526 75.3974,32.335 75.1344,32.201 C74.8714,32.068 74.5654,32.001 74.2124,32.001 C73.7704,32.001 73.3204,32.163 72.8684,32.486 C72.4144,32.81 71.9424,33.282 71.4534,33.901 L71.4534,42.123 C71.4534,42.216 71.4254,42.297 71.3694,42.366 C71.3154,42.435 71.2194,42.494 71.0864,42.539 C70.9524,42.586 70.7744,42.621 70.5514,42.644 C70.3304,42.665 70.0484,42.679 69.7064,42.679 C69.3644,42.679 69.0824,42.665 68.8604,42.644 C68.6394,42.621 68.4614,42.586 68.3274,42.539 C68.1924,42.494 68.0984,42.435 68.0424,42.366 C67.9864,42.297 67.9594,42.216 67.9594,42.123 L67.9594,29.755 C67.9594,29.663 67.9824,29.581 68.0294,29.512 C68.0754,29.443 68.1584,29.385 68.2784,29.338 C68.3984,29.292 68.5544,29.258 68.7424,29.235 C68.9314,29.211 69.1704,29.2 69.4574,29.2 C69.7534,29.2 69.9984,29.211 70.1924,29.235 C70.3864,29.258 70.5354,29.292 70.6424,29.338 C70.7494,29.385 70.8254,29.443 70.8704,29.512 C70.9184,29.581 70.9414,29.663 70.9414,29.755 L70.9414,31.183 C71.6234,30.443 72.3204,29.89 73.0274,29.519 C73.7334,29.149 74.4724,28.964 75.2394,28.964 C76.0794,28.964 76.7894,29.102 77.3674,29.38 C77.9444,29.657 78.4124,30.035 78.7684,30.51 C79.1244,30.987 79.3794,31.544 79.5374,32.181 C79.6954,32.82 79.7734,33.587 79.7734,34.483 L79.7734,42.123 Z" id="Fill-15" fill="#D52B1E"></path>
                        <path d="M93.6806,42.123 C93.6806,42.216 93.6536,42.297 93.5976,42.366 C93.5426,42.435 93.4466,42.494 93.3126,42.539 C93.1786,42.586 93.0006,42.621 92.7786,42.644 C92.5576,42.665 92.2766,42.679 91.9336,42.679 C91.5906,42.679 91.3096,42.665 91.0876,42.644 C90.8666,42.621 90.6866,42.586 90.5526,42.539 C90.4206,42.494 90.3246,42.435 90.2696,42.366 C90.2136,42.297 90.1866,42.216 90.1866,42.123 L90.1866,23.89 C90.1866,23.797 90.2136,23.714 90.2696,23.639 C90.3246,23.565 90.4206,23.503 90.5526,23.453 C90.6866,23.402 90.8666,23.362 91.0876,23.334 C91.3096,23.308 91.5906,23.293 91.9336,23.293 C92.2766,23.293 92.5576,23.308 92.7786,23.334 C93.0006,23.362 93.1786,23.402 93.3126,23.453 C93.4466,23.503 93.5426,23.565 93.5976,23.639 C93.6536,23.714 93.6806,23.797 93.6806,23.89 L93.6806,42.123 Z" id="Fill-17" fill="#D52B1E"></path>
                        <path d="M101.2026,25.5668 C101.2026,26.2708 101.0596,26.7548 100.7726,27.0238 C100.4866,27.2908 99.9546,27.4248 99.1776,27.4248 C98.3926,27.4248 97.8626,27.2958 97.5906,27.0368 C97.3186,26.7788 97.1816,26.3108 97.1816,25.6358 C97.1816,24.9338 97.3216,24.4448 97.6046,24.1728 C97.8866,23.9008 98.4196,23.7648 99.2046,23.7648 C99.9816,23.7648 100.5096,23.8958 100.7866,24.1588 C101.0646,24.4238 101.2026,24.8918 101.2026,25.5668 Z M100.9396,42.1238 C100.9396,42.2158 100.9126,42.2958 100.8556,42.3648 C100.7996,42.4358 100.7056,42.4938 100.5716,42.5398 C100.4366,42.5868 100.2596,42.6208 100.0376,42.6428 C99.8166,42.6668 99.5336,42.6768 99.1926,42.6768 C98.8496,42.6768 98.5686,42.6668 98.3476,42.6428 C98.1236,42.6208 97.9466,42.5868 97.8116,42.5398 C97.6796,42.4938 97.5826,42.4358 97.5286,42.3648 C97.4726,42.2958 97.4456,42.2158 97.4456,42.1238 L97.4456,29.7828 C97.4456,29.6908 97.4726,29.6088 97.5286,29.5398 C97.5826,29.4688 97.6796,29.4108 97.8116,29.3598 C97.9466,29.3098 98.1236,29.2698 98.3476,29.2428 C98.5686,29.2128 98.8496,29.2008 99.1926,29.2008 C99.5336,29.2008 99.8166,29.2128 100.0376,29.2428 C100.2596,29.2698 100.4366,29.3098 100.5716,29.3598 C100.7056,29.4108 100.7996,29.4688 100.8556,29.5398 C100.9126,29.6088 100.9396,29.6908 100.9396,29.7828 L100.9396,42.1238 Z" id="Fill-19" fill="#D52B1E"></path>
                        <path d="M124.3798,42.123 C124.3798,42.216 124.3528,42.297 124.2968,42.366 C124.2418,42.435 124.1498,42.494 124.0188,42.539 C123.8898,42.586 123.7138,42.621 123.4928,42.644 C123.2708,42.665 122.9878,42.679 122.6468,42.679 C122.2948,42.679 122.0078,42.665 121.7868,42.644 C121.5658,42.621 121.3878,42.586 121.2538,42.539 C121.1188,42.494 121.0268,42.435 120.9758,42.366 C120.9248,42.297 120.8998,42.216 120.8998,42.123 L120.8998,34.788 C120.8998,34.373 120.8598,33.994 120.7818,33.65 C120.7018,33.31 120.5828,33.016 120.4208,32.77 C120.2588,32.526 120.0558,32.335 119.8118,32.201 C119.5648,32.068 119.2728,32.001 118.9298,32.001 C118.5138,32.001 118.0928,32.163 117.6688,32.486 C117.2418,32.81 116.7808,33.282 116.2828,33.901 L116.2828,42.123 C116.2828,42.216 116.2538,42.297 116.1988,42.366 C116.1428,42.435 116.0478,42.494 115.9138,42.539 C115.7798,42.586 115.6018,42.621 115.3808,42.644 C115.1598,42.665 114.8818,42.679 114.5478,42.679 C114.2068,42.679 113.9238,42.665 113.7028,42.644 C113.4818,42.621 113.3028,42.586 113.1698,42.539 C113.0348,42.494 112.9408,42.435 112.8838,42.366 C112.8298,42.297 112.8008,42.216 112.8008,42.123 L112.8008,34.788 C112.8008,34.373 112.7628,33.994 112.6828,33.65 C112.6048,33.31 112.4868,33.016 112.3308,32.77 C112.1728,32.526 111.9698,32.335 111.7198,32.201 C111.4688,32.068 111.1788,32.001 110.8468,32.001 C110.4208,32.001 109.9958,32.163 109.5708,32.486 C109.1448,32.81 108.6878,33.282 108.1978,33.901 L108.1978,42.123 C108.1978,42.216 108.1708,42.297 108.1148,42.366 C108.0588,42.435 107.9638,42.494 107.8318,42.539 C107.6948,42.586 107.5178,42.621 107.2968,42.644 C107.0748,42.665 106.7918,42.679 106.4508,42.679 C106.1078,42.679 105.8268,42.665 105.6058,42.644 C105.3838,42.621 105.2048,42.586 105.0698,42.539 C104.9378,42.494 104.8418,42.435 104.7868,42.366 C104.7308,42.297 104.7038,42.216 104.7038,42.123 L104.7038,29.755 C104.7038,29.663 104.7278,29.581 104.7728,29.512 C104.8198,29.443 104.9028,29.385 105.0228,29.338 C105.1428,29.292 105.2968,29.258 105.4868,29.235 C105.6758,29.211 105.9138,29.2 106.2008,29.2 C106.4958,29.2 106.7428,29.211 106.9368,29.235 C107.1298,29.258 107.2798,29.292 107.3868,29.338 C107.4918,29.385 107.5678,29.443 107.6158,29.512 C107.6608,29.581 107.6848,29.663 107.6848,29.755 L107.6848,31.183 C108.3688,30.443 109.0508,29.89 109.7298,29.519 C110.4098,29.149 111.1188,28.964 111.8588,28.964 C112.3668,28.964 112.8248,29.017 113.2308,29.124 C113.6368,29.229 113.9998,29.383 114.3188,29.581 C114.6388,29.781 114.9148,30.019 115.1448,30.296 C115.3758,30.572 115.5688,30.882 115.7278,31.225 C116.0978,30.828 116.4608,30.485 116.8158,30.198 C117.1718,29.912 117.5238,29.679 117.8698,29.498 C118.2158,29.318 118.5628,29.184 118.9098,29.097 C119.2558,29.008 119.6098,28.964 119.9708,28.964 C120.7928,28.964 121.4858,29.102 122.0498,29.38 C122.6138,29.657 123.0698,30.035 123.4158,30.51 C123.7628,30.987 124.0088,31.544 124.1578,32.181 C124.3048,32.82 124.3798,33.495 124.3798,34.206 L124.3798,42.123 Z" id="Fill-21" fill="#D52B1E"></path>
                        <path d="M140.3759,35.7724 C140.3759,36.8724 140.2559,37.8624 140.0169,38.7404 C139.7749,39.6194 139.4289,40.3664 138.9749,40.9864 C138.5219,41.6054 137.9659,42.0814 137.3039,42.4144 C136.6439,42.7464 135.8929,42.9134 135.0509,42.9134 C134.6349,42.9134 134.2469,42.8734 133.8859,42.7954 C133.5269,42.7174 133.1819,42.5904 132.8539,42.4144 C132.5249,42.2384 132.2029,42.0174 131.8829,41.7494 C131.5639,41.4804 131.2369,41.1574 130.9049,40.7784 L130.9049,42.1224 C130.9049,42.2264 130.8799,42.3114 130.8289,42.3804 C130.7779,42.4494 130.6949,42.5074 130.5809,42.5524 C130.4639,42.5994 130.3099,42.6304 130.1159,42.6504 C129.9219,42.6684 129.6859,42.6774 129.4089,42.6774 C129.1219,42.6774 128.8839,42.6684 128.6939,42.6504 C128.5029,42.6304 128.3529,42.5994 128.2359,42.5524 C128.1199,42.5074 128.0389,42.4494 127.9929,42.3804 C127.9479,42.3114 127.9239,42.2264 127.9239,42.1224 L127.9239,23.8894 C127.9239,23.7964 127.9519,23.7124 128.0079,23.6404 C128.0629,23.5664 128.1579,23.5024 128.2909,23.4514 C128.4249,23.4024 128.6029,23.3624 128.8259,23.3344 C129.0469,23.3064 129.3289,23.2934 129.6709,23.2934 C130.0149,23.2934 130.2949,23.3064 130.5169,23.3344 C130.7379,23.3624 130.9159,23.4024 131.0499,23.4514 C131.1849,23.5024 131.2809,23.5664 131.3349,23.6404 C131.3919,23.7124 131.4179,23.7964 131.4179,23.8894 L131.4179,30.7254 C131.7319,30.4114 132.0479,30.1434 132.3599,29.9214 C132.6759,29.6984 132.9899,29.5174 133.3039,29.3734 C133.6199,29.2304 133.9419,29.1264 134.2739,29.0614 C134.6079,28.9964 134.9589,28.9634 135.3289,28.9634 C136.2429,28.9634 137.0209,29.1474 137.6579,29.5114 C138.2959,29.8774 138.8149,30.3694 139.2179,30.9884 C139.6209,31.6084 139.9129,32.3324 140.0979,33.1584 C140.2829,33.9854 140.3759,34.8584 140.3759,35.7724 M136.7559,36.0224 C136.7559,35.4954 136.7179,34.9864 136.6399,34.4974 C136.5609,34.0074 136.4239,33.5714 136.2299,33.1924 C136.0359,32.8154 135.7839,32.5124 135.4759,32.2854 C135.1649,32.0584 134.7729,31.9464 134.3029,31.9464 C134.0709,31.9464 133.8439,31.9794 133.6229,32.0424 C133.4019,32.1074 133.1729,32.2184 132.9369,32.3764 C132.7009,32.5324 132.4589,32.7354 132.2099,32.9854 C131.9589,33.2344 131.6959,33.5444 131.4179,33.9144 L131.4179,38.0184 C131.9089,38.6484 132.3759,39.1254 132.8269,39.4544 C133.2749,39.7824 133.7429,39.9454 134.2319,39.9454 C134.6859,39.9454 135.0709,39.8314 135.3849,39.5994 C135.6989,39.3684 135.9599,39.0674 136.1669,38.6994 C136.3759,38.3294 136.5259,37.9084 136.6189,37.4364 C136.7109,36.9644 136.7559,36.4934 136.7559,36.0224" id="Fill-23" fill="#D52B1E"></path>
                        <path d="M155.0136,42.123 C155.0136,42.216 154.9906,42.297 154.9446,42.366 C154.8976,42.435 154.8176,42.494 154.7016,42.539 C154.5856,42.586 154.4326,42.621 154.2436,42.644 C154.0536,42.665 153.8166,42.679 153.5296,42.679 C153.2246,42.679 152.9776,42.665 152.7876,42.644 C152.5986,42.621 152.4486,42.586 152.3376,42.539 C152.2266,42.494 152.1466,42.435 152.1016,42.366 C152.0556,42.297 152.0326,42.216 152.0326,42.123 L152.0326,40.695 C151.3486,41.434 150.6516,41.989 149.9466,42.359 C149.2386,42.729 148.5056,42.915 147.7476,42.915 C146.8966,42.915 146.1836,42.774 145.6046,42.497 C145.0276,42.219 144.5596,41.84 144.2036,41.359 C143.8486,40.88 143.5946,40.324 143.4416,39.69 C143.2896,39.057 143.2136,38.268 143.2136,37.326 L143.2136,29.755 C143.2136,29.663 143.2386,29.581 143.2896,29.512 C143.3406,29.443 143.4326,29.385 143.5676,29.338 C143.7016,29.292 143.8816,29.258 144.1076,29.235 C144.3346,29.211 144.6146,29.2 144.9466,29.2 C145.2886,29.2 145.5706,29.211 145.7916,29.235 C146.0146,29.258 146.1926,29.292 146.3266,29.338 C146.4596,29.385 146.5556,29.443 146.6096,29.512 C146.6656,29.581 146.6936,29.663 146.6936,29.755 L146.6936,36.744 C146.6936,37.39 146.7346,37.885 146.8186,38.226 C146.9016,38.569 147.0286,38.863 147.1996,39.108 C147.3696,39.353 147.5876,39.541 147.8506,39.676 C148.1156,39.81 148.4226,39.877 148.7746,39.877 C149.2166,39.877 149.6626,39.716 150.1116,39.391 C150.5596,39.068 151.0386,38.596 151.5466,37.977 L151.5466,29.755 C151.5466,29.663 151.5716,29.581 151.6226,29.512 C151.6736,29.443 151.7656,29.385 151.9006,29.338 C152.0346,29.292 152.2126,29.258 152.4336,29.235 C152.6566,29.211 152.9376,29.2 153.2796,29.2 C153.6216,29.2 153.9036,29.211 154.1266,29.235 C154.3476,29.258 154.5236,29.292 154.6526,29.338 C154.7816,29.385 154.8736,29.443 154.9306,29.512 C154.9866,29.581 155.0136,29.663 155.0136,29.755 L155.0136,42.123 Z" id="Fill-25" fill="#D52B1E"></path>
                        <path d="M166.7509,30.9057 C166.7509,31.2377 166.7419,31.5117 166.7239,31.7237 C166.7039,31.9367 166.6769,32.1027 166.6399,32.2227 C166.6019,32.3427 166.5549,32.4267 166.4949,32.4727 C166.4349,32.5187 166.3569,32.5417 166.2669,32.5417 C166.1919,32.5417 166.1089,32.5257 166.0159,32.4927 C165.9239,32.4607 165.8199,32.4267 165.7039,32.3897 C165.5879,32.3517 165.4609,32.3177 165.3229,32.2847 C165.1839,32.2537 165.0309,32.2357 164.8659,32.2357 C164.6719,32.2357 164.4759,32.2757 164.2819,32.3537 C164.0869,32.4337 163.8879,32.5567 163.6789,32.7217 C163.4709,32.8887 163.2549,33.1097 163.0279,33.3877 C162.8009,33.6657 162.5579,34.0067 162.2999,34.4127 L162.2999,42.1237 C162.2999,42.2157 162.2719,42.2957 162.2169,42.3667 C162.1609,42.4357 162.0659,42.4937 161.9319,42.5387 C161.7979,42.5857 161.6199,42.6207 161.3989,42.6427 C161.1759,42.6657 160.8949,42.6787 160.5529,42.6787 C160.2099,42.6787 159.9289,42.6657 159.7059,42.6427 C159.4849,42.6207 159.3069,42.5857 159.1729,42.5387 C159.0389,42.4937 158.9439,42.4357 158.8899,42.3667 C158.8339,42.2957 158.8059,42.2157 158.8059,42.1237 L158.8059,29.7537 C158.8059,29.6627 158.8279,29.5807 158.8749,29.5117 C158.9199,29.4417 159.0039,29.3847 159.1259,29.3387 C159.2449,29.2927 159.3989,29.2587 159.5899,29.2347 C159.7789,29.2117 160.0159,29.1997 160.3029,29.1997 C160.5989,29.1997 160.8439,29.2117 161.0379,29.2347 C161.2319,29.2587 161.3819,29.2927 161.4889,29.3387 C161.5949,29.3847 161.6709,29.4417 161.7179,29.5117 C161.7639,29.5807 161.7869,29.6627 161.7869,29.7537 L161.7869,31.2937 C162.1099,30.8317 162.4149,30.4497 162.7019,30.1487 C162.9879,29.8497 163.2599,29.6107 163.5199,29.4357 C163.7789,29.2597 164.0369,29.1367 164.2979,29.0677 C164.5559,28.9987 164.8139,28.9647 165.0729,28.9647 C165.1919,28.9647 165.3229,28.9717 165.4609,28.9867 C165.6009,28.9987 165.7439,29.0227 165.8909,29.0547 C166.0379,29.0857 166.1679,29.1237 166.2789,29.1657 C166.3899,29.2077 166.4719,29.2507 166.5219,29.2967 C166.5729,29.3437 166.6089,29.3947 166.6329,29.4487 C166.6569,29.5047 166.6769,29.5807 166.6959,29.6777 C166.7129,29.7757 166.7289,29.9207 166.7359,30.1147 C166.7459,30.3087 166.7509,30.5717 166.7509,30.9057" id="Fill-27" fill="#D52B1E"></path>
                        <g id="Group-31" transform="translate(167.000000, 28.655700)">
                            <mask id="mask-3" fill="white">
                                <use xlink:href="#path-2"></use>
                            </mask>
                            <g id="Clip-30"></g>
                            <path d="M12.9999,1.9585 C12.9999,2.4025 12.9489,2.7315 12.8479,2.9435 C12.7459,3.1555 12.6209,3.2635 12.4719,3.2635 L11.0169,3.2635 C11.2199,3.4845 11.3649,3.7365 11.4539,4.0175 C11.5419,4.3005 11.5849,4.5925 11.5849,4.8975 C11.5849,5.6195 11.4649,6.2585 11.2259,6.8185 C10.9839,7.3775 10.6399,7.8495 10.1909,8.2345 C9.7439,8.6175 9.2029,8.9075 8.5699,9.1065 C7.9369,9.3065 7.2299,9.4045 6.4559,9.4045 C6.0569,9.4045 5.6799,9.3555 5.3179,9.2595 C4.9579,9.1635 4.6799,9.0485 4.4859,8.9195 C4.3749,9.0395 4.2749,9.1835 4.1879,9.3505 C4.0989,9.5155 4.0559,9.7005 4.0559,9.9035 C4.0559,10.1715 4.1739,10.3915 4.4099,10.5625 C4.6459,10.7345 4.9759,10.8285 5.4019,10.8465 L8.4099,10.9575 C9.1119,10.9865 9.7379,11.0845 10.2899,11.2565 C10.8389,11.4275 11.3019,11.6665 11.6759,11.9775 C12.0489,12.2875 12.3359,12.6595 12.5359,13.0925 C12.7329,13.5285 12.8329,14.0215 12.8329,14.5765 C12.8329,15.1865 12.6989,15.7615 12.4299,16.3025 C12.1639,16.8445 11.7609,17.3125 11.2259,17.7095 C10.6879,18.1075 10.0159,18.4235 9.2079,18.6535 C8.3989,18.8835 7.4539,19.0005 6.3729,19.0005 C5.3179,19.0005 4.4179,18.9165 3.6749,18.7495 C2.9309,18.5845 2.3209,18.3525 1.8439,18.0565 C1.3689,17.7605 1.0219,17.4075 0.8049,16.9975 C0.5869,16.5855 0.4789,16.1355 0.4789,15.6435 C0.4789,15.3385 0.5179,15.0485 0.5959,14.7715 C0.6759,14.4935 0.7899,14.2285 0.9419,13.9745 C1.0969,13.7185 1.2829,13.4775 1.5049,13.2455 C1.7259,13.0145 1.9799,12.7935 2.2669,12.5795 C1.8699,12.3675 1.5629,12.0785 1.3449,11.7135 C1.1269,11.3495 1.0189,10.9485 1.0189,10.5145 C1.0189,9.9685 1.1439,9.4715 1.3939,9.0235 C1.6429,8.5755 1.9669,8.1705 2.3649,7.8095 C2.0419,7.4865 1.7819,7.0985 1.5879,6.6445 C1.3939,6.1925 1.2959,5.6285 1.2959,4.9535 C1.2959,4.2335 1.4229,3.5875 1.6769,3.0205 C1.9309,2.4505 2.2849,1.9695 2.7379,1.5775 C3.1919,1.1845 3.7329,0.8845 4.3619,0.6755 C4.9899,0.4675 5.6829,0.3635 6.4409,0.3635 C6.8299,0.3635 7.2019,0.3875 7.5569,0.4325 C7.9129,0.4795 8.2429,0.5435 8.5499,0.6265 L12.4719,0.6265 C12.6299,0.6265 12.7569,0.7305 12.8549,0.9335 C12.9509,1.1365 12.9999,1.4775 12.9999,1.9585 M9.3389,14.7565 C9.3389,14.3405 9.1739,14.0215 8.8399,13.8005 C8.5079,13.5795 8.0489,13.4595 7.4659,13.4395 L4.9859,13.3705 C4.7449,13.5465 4.5529,13.7155 4.4099,13.8765 C4.2659,14.0385 4.1499,14.1935 4.0629,14.3405 C3.9759,14.4875 3.9179,14.6335 3.8909,14.7715 C3.8609,14.9085 3.8489,15.0525 3.8489,15.2015 C3.8489,15.6615 4.0809,16.0135 4.5489,16.2545 C5.0159,16.4945 5.6739,16.6165 6.5249,16.6165 C7.0509,16.6165 7.4959,16.5615 7.8559,16.4565 C8.2159,16.3495 8.5079,16.2085 8.7289,16.0315 C8.9509,15.8575 9.1079,15.6605 9.2009,15.4445 C9.2929,15.2265 9.3389,14.9975 9.3389,14.7565 M8.5209,4.8845 C8.5209,4.2195 8.3349,3.7025 7.9649,3.3325 C7.5969,2.9615 7.0749,2.7765 6.3999,2.7765 C6.0569,2.7765 5.7569,2.8345 5.4979,2.9515 C5.2399,3.0655 5.0239,3.2235 4.8539,3.4205 C4.6839,3.6205 4.5569,3.8505 4.4729,4.1155 C4.3899,4.3785 4.3479,4.6545 4.3479,4.9395 C4.3479,5.5685 4.5329,6.0655 4.9029,6.4305 C5.2709,6.7955 5.7849,6.9785 6.4409,6.9785 C6.7929,6.9785 7.0979,6.9225 7.3559,6.8115 C7.6149,6.7015 7.8309,6.5485 8.0019,6.3545 C8.1719,6.1605 8.3009,5.9355 8.3899,5.6815 C8.4769,5.4275 8.5209,5.1625 8.5209,4.8845" id="Fill-29" fill="#E31F13" mask="url(#mask-3)"></path>
                        </g>
                    </g>
                </g>
            </g>
        </g>
    </g>
</svg>