<?xml version="1.0" encoding="utf-8"?>
<!-- Generator: Adobe Illustrator 23.0.1, SVG Export Plug-In . SVG Version: 6.00 Build 0)  -->
<svg version="1.1" id="Layer_1" xmlns="http://www.w3.org/2000/svg" xmlns:xlink="http://www.w3.org/1999/xlink" x="20px" y="20px"
	 width="100px" height="100px" viewBox="-20 -20 100 100" style="enable-background:new 0 0 100 100;" xml:space="preserve">
<style type="text/css">
	.st0{fill-rule:evenodd;clip-rule:evenodd;fill:#FFFFFF;}
	.st1{fill:#4F0B7B;}
</style>
<filter x="-96.7%" y="-96.7%" width="293.3%" height="293.3%" filterUnits="objectBoundingBox" id="filter-1">
            <feOffset dx="-5" dy="10" in="SourceAlpha" result="shadowOffsetOuter1"></feOffset>
            <feGaussianBlur stdDeviation="10" in="shadowOffsetOuter1" result="shadowBlurOuter1"></feGaussianBlur>
            <feColorMatrix values="0 0 0 0 0   0 0 0 0 0   0 0 0 0 0  0 0 0 0.1 0" type="matrix" in="shadowBlurOuter1" result="shadowMatrixOuter1"></feColorMatrix>
            <feMerge>
                <feMergeNode in="shadowMatrixOuter1"></feMergeNode>
                <feMergeNode in="SourceGraphic"></feMergeNode>
            </feMerge>
        </filter>
<path filter="url(#filter-1)" class="st0" d="M0.08,29.81c-0.46-6.25,1.19-12.13,5.24-17.22c1.46-1.83,3.16-3.62,5.1-4.9c3.36-2.21,6.99-4,10.52-5.96
	c2.3-1.27,4.77-1.82,7.4-1.73c3.66,0.11,7.3,0,10.94,0.82c2.78,0.62,5.23,1.63,7.39,3.39c5.64,4.57,10.67,9.6,12.24,17.04
	c1.59,7.49,1.75,14.87-1.87,21.94c-1.67,3.26-3.07,6.68-5.85,9.21c-4.15,3.77-8.77,6.58-14.57,6.96c-2.38,0.16-4.75,0.34-7.12,0.58
	c-1.69,0.17-3.25-0.11-4.83-0.71c-4.61-1.75-9.42-2.84-13.7-5.56C4.2,49.38,1.18,43.07,0.12,35.52
	C-0.13,33.73,0.08,31.86,0.08,29.81"/>
<path class="st1" d="M35.08,15.29c0.02-0.73-1.24-0.44-1.62-0.28c-4.87,2.06-9.55,4.46-14.07,7.22c-0.7,0.43-0.48,0.69-0.01,0.79
	c-0.01,3.72-0.04,7.43-0.03,11.15c0.01,3.02,0.43,3.41,3.09,5.19c2.47,1.66,5.32,4.29,8.09,5.42c1.06,0.43,1.28,0.52,2.45,0.25
	c0.34-0.08,0.92-0.31,1.03-0.7c1.18-4.19,0.47-9.7,0.61-14.06C34.76,25.28,34.92,20.29,35.08,15.29z"/>
<path class="st1" d="M16.65,21.8c-0.67-0.86-3.38-0.33-4.17-0.29c-0.15,0.01-0.32,0.06-0.5,0.13c-0.62-0.18-2.07,0.22-2.08,0.91
	c-0.03,2.85-0.07,5.71-0.1,8.56c-0.02,1.53-0.82,5.57,0.05,6.7c0.85,1.11,4.46,1.04,5.58,0.34c2.3-1.45,1.36-7.86,1.38-10.18
	C16.81,26.58,17.56,22.99,16.65,21.8z"/>
<g>
	<path class="st1" d="M38.95,18.14c5.74,5.26,6.93,18.08-0.1,22.76c-1.19,0.79,1.69,0.44,2.22,0.09c7.57-5.04,6.96-18.02,0.61-23.84
		C41.12,16.63,38.5,17.73,38.95,18.14L38.95,18.14z"/>
</g>
<g>
	<path class="st1" d="M37.07,23.56c1.64,1.46,1.77,4.48,1.74,6.55c-0.04,2.43-0.84,4.36-2.56,6.11c-1.27,1.29,1.51,1.8,2.43,0.87
		c3.54-3.6,4.75-11.55,0.63-15.21C38.34,21.02,35.82,22.44,37.07,23.56L37.07,23.56z"/>
</g>
<g>
	<path class="st1" d="M44.11,16.29c4.79,8.32,6.21,20.16-2.47,26.31c-1.6,1.13,0.82,1.82,1.86,1.09c9.6-6.8,8.75-19.12,3.29-28.6
		C46.23,14.12,43.43,15.1,44.11,16.29L44.11,16.29z"/>
</g>
</svg>
