<?xml version="1.0" encoding="utf-8"?>
<!-- Generator: Adobe Illustrator 23.0.1, SVG Export Plug-In . SVG Version: 6.00 Build 0)  -->
<svg version="1.1" id="Layer_1" xmlns="http://www.w3.org/2000/svg" xmlns:xlink="http://www.w3.org/1999/xlink" x="20px" y="20px"
	 width="100px" height="100px" viewBox="-20 -20 100 100" style="enable-background:new 0 0 100 100;" xml:space="preserve">
<style type="text/css">
	.st0{fill-rule:evenodd;clip-rule:evenodd;fill:#FFFFFF;}
	.st1{fill:#4F0B7B;}
</style>
<filter x="-96.7%" y="-96.7%" width="293.3%" height="293.3%" filterUnits="objectBoundingBox" id="filter-1">
            <feOffset dx="-5" dy="10" in="SourceAlpha" result="shadowOffsetOuter1"></feOffset>
            <feGaussianBlur stdDeviation="10" in="shadowOffsetOuter1" result="shadowBlurOuter1"></feGaussianBlur>
            <feColorMatrix values="0 0 0 0 0   0 0 0 0 0   0 0 0 0 0  0 0 0 0.1 0" type="matrix" in="shadowBlurOuter1" result="shadowMatrixOuter1"></feColorMatrix>
            <feMerge>
                <feMergeNode in="shadowMatrixOuter1"></feMergeNode>
                <feMergeNode in="SourceGraphic"></feMergeNode>
            </feMerge>
        </filter>
<path filter="url(#filter-1)" class="st0" d="M0.1,29.8c-0.5-6.2,1.2-12.1,5.2-17.2c1.5-1.8,3.2-3.6,5.1-4.9c3.4-2.2,7-4,10.5-6c2.3-1.3,4.8-1.8,7.4-1.7
	c3.7,0.1,7.3,0,10.9,0.8c2.8,0.6,5.2,1.6,7.4,3.4c5.6,4.6,10.7,9.6,12.2,17c1.6,7.5,1.8,14.9-1.9,21.9c-1.7,3.3-3.1,6.7-5.8,9.2
	c-4.2,3.8-8.8,6.6-14.6,7c-2.4,0.2-4.8,0.3-7.1,0.6c-1.7,0.2-3.2-0.1-4.8-0.7c-4.6-1.8-9.4-2.8-13.7-5.6C4.2,49.4,1.2,43.1,0.1,35.5
	C-0.1,33.7,0.1,31.9,0.1,29.8"/>
<g>
	<path class="st1" d="M35.1,15.3c0-0.7-1.2-0.4-1.6-0.3c-4.9,2.1-9.5,4.5-14.1,7.2c-0.7,0.4-0.5,0.7,0,0.8c0,3.7,0,7.4,0,11.1
		c0,3,0.4,3.4,3.1,5.2c2.5,1.7,5.3,4.3,8.1,5.4c1.1,0.4,1.3,0.5,2.5,0.2c0.3-0.1,0.9-0.3,1-0.7c1.2-4.2,0.5-9.7,0.6-14.1
		C34.8,25.3,34.9,20.3,35.1,15.3z"/>
	<path class="st1" d="M16.6,21.8c-0.7-0.9-3.4-0.3-4.2-0.3c-0.1,0-0.3,0.1-0.5,0.1c-0.6-0.2-2.1,0.2-2.1,0.9c0,2.9-0.1,5.7-0.1,8.6
		c0,1.5-0.8,5.6,0.1,6.7c0.9,1.1,4.5,1,5.6,0.3c2.3-1.5,1.4-7.9,1.4-10.2C16.8,26.6,17.6,23,16.6,21.8z"/>
	<path class="st1" d="M50.5,25.4c0.1-0.1,0.1-0.2,0.1-0.3c-0.3-0.5-0.7-0.9-1.1-1.4c-0.4-0.5-1.7,0-2,0.3c-1.4,1.2-2.8,2.4-3.9,4
		c-0.2-0.2-0.4-0.4-0.6-0.6c-1-1.1-1.6-3.3-3.2-3.5c-1-0.1-2,0.3-2.4,1.1c0,0.1-0.1,0.2-0.1,0.2c-0.4,0.2-0.6,0.5-0.4,0.9
		c1.3,1.9,2.7,3.7,4.3,5.3c-0.6,0.7-1.2,1.3-2,1.8c-1.1,0.3-2.2,1-2,2.4c0.2,1.5,1.4,1.8,2.6,1.3c1.4-0.6,2.5-2.1,3.6-3.5
		c0.6,0.5,1.2,1,1.8,1.4c1,0.7,2.3,2,3.6,1.8c0.8-0.1,1.7-0.7,1.5-1.6c-0.1-0.5-1-1-1.3-1.4c-0.6-0.8-1-1.8-1.7-2.6
		c-0.3-0.4-0.7-0.8-1.2-1.1c0.3-0.4,0.7-0.8,1.1-1.3C48.3,27.6,49.7,26.6,50.5,25.4z"/>
</g>
</svg>
